<svg class="main-svg" xmlns="http://www.w3.org/2000/svg" xmlns:xlink="http://www.w3.org/1999/xlink" width="1400" height="1000" style="" viewBox="0 0 700 500"><rect x="0" y="0" width="700" height="500" style="fill: rgb(255, 255, 255); fill-opacity: 1;"/><defs id="defs-1f6607"><g class="clips"/><g class="gradients"/><g class="patterns"/></defs><g class="bglayer"/><g class="layer-below"><g class="imagelayer"/><g class="shapelayer"/></g><g class="cartesianlayer"/><g class="polarlayer"/><g class="smithlayer"/><g class="ternarylayer"/><g class="geolayer"/><g class="funnelarealayer"/><g class="pielayer"/><g class="iciclelayer"/><g class="treemaplayer"/><g class="sunburstlayer"/><g class="glimages"/><g class="sankey" transform="translate(10,104)matrix(1 0 0 1 0 0)" style="box-sizing: content-box; position: absolute; left: 0px; shape-rendering: geometricprecision; pointer-events: none;"><g class="sankey-links" style="fill: none;"><path class="sankey-link" d="M16,-1.1368683772161603e-13C80.5,-1.1368683772161603e-13 80.5,-5.115907697472721e-13 145,-5.115907697472721e-13L145,95.41564792175988C80.5,95.41564792175988 80.5,95.41564792176028 16,95.41564792176028Z" style="stroke: rgb(68, 68, 68); stroke-opacity: 1; fill: rgb(0, 0, 0); fill-opacity: 0.2; stroke-width: 0; opacity: 1;"/><path class="sankey-link" d="M16,95.41564792176028C80.5,95.41564792176028 80.5,185.72616136919262 145,185.72616136919262L145,208.660146699266C80.5,208.660146699266 80.5,118.34963325183362 16,118.34963325183362Z" style="stroke: rgb(68, 68, 68); stroke-opacity: 1; fill: rgb(0, 0, 0); fill-opacity: 0.2; stroke-width: 0; opacity: 1;"/><path class="sankey-link" d="M16,118.34963325183364C80.5,118.34963325183364 80.5,310.523227383863 145,310.523227383863L145,316.5134474327628C80.5,316.5134474327628 80.5,124.33985330073338 16,124.33985330073338Z" style="stroke: rgb(68, 68, 68); stroke-opacity: 1; fill: rgb(0, 0, 0); fill-opacity: 0.2; stroke-width: 0; opacity: 1;"/><path class="sankey-link" d="M16,142.33985330073338C80.5,142.33985330073338 80.5,95.41564792175988 145,95.41564792175988L145,144.1075794621022C80.5,144.1075794621022 80.5,191.03178484107568 16,191.03178484107568Z" style="stroke: rgb(68, 68, 68); stroke-opacity: 1; fill: rgb(0, 0, 0); fill-opacity: 0.2; stroke-width: 0; opacity: 1;"/><path class="sankey-link" d="M16,191.03178484107568C80.5,191.03178484107568 80.5,208.66014669926597 145,208.66014669926597L145,256.58190709046403C80.5,256.58190709046403 80.5,238.95354523227374 16,238.95354523227374Z" style="stroke: rgb(68, 68, 68); stroke-opacity: 1; fill: rgb(0, 0, 0); fill-opacity: 0.2; stroke-width: 0; opacity: 1;"/><path class="sankey-link" d="M16,238.9535452322737C80.5,238.9535452322737 80.5,316.51344743276275 145,316.51344743276275L145,335.8533007334962C80.5,335.8533007334962 80.5,258.29339853300723 16,258.29339853300723Z" style="stroke: rgb(68, 68, 68); stroke-opacity: 1; fill: rgb(0, 0, 0); fill-opacity: 0.2; stroke-width: 0; opacity: 1;"/><path class="sankey-link" d="M16,276.2933985330071C80.5,276.2933985330071 80.5,144.1075794621022 145,144.1075794621022L145,167.72616136919265C80.5,167.72616136919265 80.5,299.91198044009764 16,299.91198044009764Z" style="stroke: rgb(68, 68, 68); stroke-opacity: 1; fill: rgb(0, 0, 0); fill-opacity: 0.2; stroke-width: 0; opacity: 1;"/><path class="sankey-link" d="M16,299.9119804400976C80.5,299.9119804400976 80.5,256.58190709046403 145,256.58190709046403L145,292.5232273838626C80.5,292.5232273838626 80.5,335.85330073349616 16,335.85330073349616Z" style="stroke: rgb(68, 68, 68); stroke-opacity: 1; fill: rgb(0, 0, 0); fill-opacity: 0.2; stroke-width: 0; opacity: 1;"/><path class="sankey-link" d="M16,335.8533007334961C80.5,335.8533007334961 80.5,335.85330073349627 145,335.85330073349627L145,385.99999999999994C80.5,385.99999999999994 80.5,385.9999999999998 16,385.9999999999998Z" style="stroke: rgb(68, 68, 68); stroke-opacity: 1; fill: rgb(0, 0, 0); fill-opacity: 0.2; stroke-width: 0; opacity: 1;"/><path class="sankey-link" d="M161,-5.115907697472721e-13C225.5,-5.115907697472721e-13 225.5,99.84843162324475 290,99.84843162324475L290,176.18094996065307C225.5,176.18094996065307 225.5,76.3325183374078 161,76.3325183374078Z" style="stroke: rgb(68, 68, 68); stroke-opacity: 1; fill: rgb(0, 0, 0); fill-opacity: 0.2; stroke-width: 0; opacity: 1;"/><path class="sankey-link" d="M161,76.3325183374078C225.5,76.3325183374078 225.5,223.27630448388035 290,223.27630448388035L290,238.5941528946383C225.5,238.5941528946383 225.5,91.65036674816577 161,91.65036674816577Z" style="stroke: rgb(68, 68, 68); stroke-opacity: 1; fill: rgb(0, 0, 0); fill-opacity: 0.2; stroke-width: 0; opacity: 1;"/><path class="sankey-link" d="M161,91.65036674816575C225.5,91.65036674816575 225.5,291.3374291782569 290,291.3374291782569L290,295.9584560731224C225.5,295.9584560731224 225.5,96.27139364303129 161,96.27139364303129Z" style="stroke: rgb(68, 68, 68); stroke-opacity: 1; fill: rgb(0, 0, 0); fill-opacity: 0.2; stroke-width: 0; opacity: 1;"/><path class="sankey-link" d="M161,185.72616136919262C225.5,185.72616136919262 225.5,176.1809499606531 290,176.1809499606531L290,198.51591328583646C225.5,198.51591328583646 225.5,208.061124694376 161,208.061124694376Z" style="stroke: rgb(68, 68, 68); stroke-opacity: 1; fill: rgb(0, 0, 0); fill-opacity: 0.2; stroke-width: 0; opacity: 1;"/><path class="sankey-link" d="M161,208.061124694376C225.5,208.061124694376 225.5,238.59415289463828 290,238.59415289463828L290,262.04158565747446C225.5,262.04158565747446 225.5,231.50855745721216 161,231.50855745721216Z" style="stroke: rgb(68, 68, 68); stroke-opacity: 1; fill: rgb(0, 0, 0); fill-opacity: 0.2; stroke-width: 0; opacity: 1;"/><path class="sankey-link" d="M161,231.5085574572122C225.5,231.5085574572122 225.5,295.9584560731224 290,295.9584560731224L290,306.3129793005063C225.5,306.3129793005063 225.5,241.86308068459607 161,241.86308068459607Z" style="stroke: rgb(68, 68, 68); stroke-opacity: 1; fill: rgb(0, 0, 0); fill-opacity: 0.2; stroke-width: 0; opacity: 1;"/><path class="sankey-link" d="M161,310.523227383863C225.5,310.523227383863 225.5,198.51591328583646 290,198.51591328583646L290,205.2763044838805C225.5,205.2763044838805 225.5,317.283618581907 161,317.283618581907Z" style="stroke: rgb(68, 68, 68); stroke-opacity: 1; fill: rgb(0, 0, 0); fill-opacity: 0.2; stroke-width: 0; opacity: 1;"/><path class="sankey-link" d="M161,317.28361858190704C225.5,317.28361858190704 225.5,262.04158565747446 290,262.04158565747446L290,273.3374291782568C225.5,273.3374291782568 225.5,328.5794621026894 161,328.5794621026894Z" style="stroke: rgb(68, 68, 68); stroke-opacity: 1; fill: rgb(0, 0, 0); fill-opacity: 0.2; stroke-width: 0; opacity: 1;"/><path class="sankey-link" d="M161,328.57946210268943C225.5,328.57946210268943 225.5,306.3129793005063 290,306.3129793005063L290,324.7115123078413C225.5,324.7115123078413 225.5,346.97799511002444 161,346.97799511002444Z" style="stroke: rgb(68, 68, 68); stroke-opacity: 1; fill: rgb(0, 0, 0); fill-opacity: 0.2; stroke-width: 0; opacity: 1;"/></g><g class="sankey-node-set" style="cursor: move;"><g class="sankey-node" transform="translate(0.000,-0.000)" style="opacity: 1;"><rect class="node-rect" width="16" height="124.3398533007335" style="stroke-width: 0.5; stroke: rgb(68, 68, 68); stroke-opacity: 1; fill: rgb(44, 160, 44); fill-opacity: 1;"/><text class="node-label" data-notex="1" x="0" y="0" text-anchor="start" transform="translate(19.25,66.01992665036674)" style="cursor: default; font-family: 'Open Sans', verdana, arial, sans-serif; font-size: 11px; fill: rgb(42, 63, 95); fill-opacity: 1; text-shadow: rgb(255, 255, 255) 1px 1px 1px, rgb(255, 255, 255) -1px -1px 1px, rgb(255, 255, 255) 1px -1px 1px, rgb(255, 255, 255) -1px 1px 1px; white-space: pre;">V0·Low</text></g><g class="sankey-node" transform="translate(0.000,142.340)" style="opacity: 1;"><rect class="node-rect" width="16" height="115.95354523227374" style="stroke-width: 0.5; stroke: rgb(68, 68, 68); stroke-opacity: 1; fill: rgb(189, 189, 189); fill-opacity: 1;"/><text class="node-label" data-notex="1" x="0" y="0" text-anchor="start" transform="translate(19.25,61.82677261613687)" style="cursor: default; font-family: 'Open Sans', verdana, arial, sans-serif; font-size: 11px; fill: rgb(42, 63, 95); fill-opacity: 1; text-shadow: rgb(255, 255, 255) 1px 1px 1px, rgb(255, 255, 255) -1px -1px 1px, rgb(255, 255, 255) 1px -1px 1px, rgb(255, 255, 255) -1px 1px 1px; white-space: pre;">V0·Mid</text></g><g class="sankey-node" transform="translate(0.000,276.293)" style="opacity: 1;"><rect class="node-rect" width="16" height="109.70660146699288" style="stroke-width: 0.5; stroke: rgb(68, 68, 68); stroke-opacity: 1; fill: rgb(214, 39, 40); fill-opacity: 1;"/><text class="node-label" data-notex="1" x="0" y="0" text-anchor="start" transform="translate(19.25,58.70330073349644)" style="cursor: default; font-family: 'Open Sans', verdana, arial, sans-serif; font-size: 11px; fill: rgb(42, 63, 95); fill-opacity: 1; text-shadow: rgb(255, 255, 255) 1px 1px 1px, rgb(255, 255, 255) -1px -1px 1px, rgb(255, 255, 255) 1px -1px 1px, rgb(255, 255, 255) -1px 1px 1px; white-space: pre;">V0·High</text></g><g class="sankey-node" transform="translate(145.000,-0.000)" style="opacity: 1;"><rect class="node-rect" width="16" height="167.72616136919314" style="stroke-width: 0.5; stroke: rgb(68, 68, 68); stroke-opacity: 1; fill: rgb(44, 160, 44); fill-opacity: 1;"/><text class="node-label" data-notex="1" x="0" y="0" text-anchor="start" transform="translate(19.25,87.71308068459656)" style="cursor: default; font-family: 'Open Sans', verdana, arial, sans-serif; font-size: 11px; fill: rgb(42, 63, 95); fill-opacity: 1; text-shadow: rgb(255, 255, 255) 1px 1px 1px, rgb(255, 255, 255) -1px -1px 1px, rgb(255, 255, 255) 1px -1px 1px, rgb(255, 255, 255) -1px 1px 1px; white-space: pre;">V1·Low</text></g><g class="sankey-node" transform="translate(145.000,185.726)" style="opacity: 1;"><rect class="node-rect" width="16" height="106.79706601467038" style="stroke-width: 0.5; stroke: rgb(68, 68, 68); stroke-opacity: 1; fill: rgb(189, 189, 189); fill-opacity: 1;"/><text class="node-label" data-notex="1" x="0" y="0" text-anchor="start" transform="translate(19.25,57.24853300733519)" style="cursor: default; font-family: 'Open Sans', verdana, arial, sans-serif; font-size: 11px; fill: rgb(42, 63, 95); fill-opacity: 1; text-shadow: rgb(255, 255, 255) 1px 1px 1px, rgb(255, 255, 255) -1px -1px 1px, rgb(255, 255, 255) 1px -1px 1px, rgb(255, 255, 255) -1px 1px 1px; white-space: pre;">V1·Mid</text></g><g class="sankey-node" transform="translate(145.000,310.523)" style="opacity: 1;"><rect class="node-rect" width="16" height="75.476772616137" style="stroke-width: 0.5; stroke: rgb(68, 68, 68); stroke-opacity: 1; fill: rgb(214, 39, 40); fill-opacity: 1;"/><text class="node-label" data-notex="1" x="0" y="0" text-anchor="start" transform="translate(19.25,41.5883863080685)" style="cursor: default; font-family: 'Open Sans', verdana, arial, sans-serif; font-size: 11px; fill: rgb(42, 63, 95); fill-opacity: 1; text-shadow: rgb(255, 255, 255) 1px 1px 1px, rgb(255, 255, 255) -1px -1px 1px, rgb(255, 255, 255) 1px -1px 1px, rgb(255, 255, 255) -1px 1px 1px; white-space: pre;">V1·High</text></g><g class="sankey-node" transform="translate(290.000,99.848)" style="opacity: 1;"><rect class="node-rect" width="16" height="105.42787286063559" style="stroke-width: 0.5; stroke: rgb(68, 68, 68); stroke-opacity: 1; fill: rgb(44, 160, 44); fill-opacity: 1;"/><text class="node-label" data-notex="1" x="0" y="0" text-anchor="end" transform="translate(-3.25,56.563936430317796)" style="cursor: default; font-family: 'Open Sans', verdana, arial, sans-serif; font-size: 11px; fill: rgb(42, 63, 95); fill-opacity: 1; text-shadow: rgb(255, 255, 255) 1px 1px 1px, rgb(255, 255, 255) -1px -1px 1px, rgb(255, 255, 255) 1px -1px 1px, rgb(255, 255, 255) -1px 1px 1px; white-space: pre;">V2·Low</text></g><g class="sankey-node" transform="translate(290.000,223.276)" style="opacity: 1;"><rect class="node-rect" width="16" height="50.06112469437656" style="stroke-width: 0.5; stroke: rgb(68, 68, 68); stroke-opacity: 1; fill: rgb(189, 189, 189); fill-opacity: 1;"/><text class="node-label" data-notex="1" x="0" y="0" text-anchor="end" transform="translate(-3.25,28.88056234718828)" style="cursor: default; font-family: 'Open Sans', verdana, arial, sans-serif; font-size: 11px; fill: rgb(42, 63, 95); fill-opacity: 1; text-shadow: rgb(255, 255, 255) 1px 1px 1px, rgb(255, 255, 255) -1px -1px 1px, rgb(255, 255, 255) 1px -1px 1px, rgb(255, 255, 255) -1px 1px 1px; white-space: pre;">V2·Mid</text></g><g class="sankey-node" transform="translate(290.000,291.337)" style="opacity: 1;"><rect class="node-rect" width="16" height="33.374083129584335" style="stroke-width: 0.5; stroke: rgb(68, 68, 68); stroke-opacity: 1; fill: rgb(214, 39, 40); fill-opacity: 1;"/><text class="node-label" data-notex="1" x="0" y="0" text-anchor="end" transform="translate(-3.25,20.53704156479217)" style="cursor: default; font-family: 'Open Sans', verdana, arial, sans-serif; font-size: 11px; fill: rgb(42, 63, 95); fill-opacity: 1; text-shadow: rgb(255, 255, 255) 1px 1px 1px, rgb(255, 255, 255) -1px -1px 1px, rgb(255, 255, 255) 1px -1px 1px, rgb(255, 255, 255) -1px 1px 1px; white-space: pre;">V2·High</text></g></g></g><g class="sankey" transform="translate(384.00000000000006,104)matrix(1 0 0 1 0 0)" style="box-sizing: content-box; position: absolute; left: 0px; shape-rendering: geometricprecision; pointer-events: none;"><g class="sankey-links" style="fill: none;"><path class="sankey-link" d="M16,-1.1368683772161603e-13C80.49999999999999,-1.1368683772161603e-13 80.49999999999999,-5.968558980384842e-13 144.99999999999997,-5.968558980384842e-13L144.99999999999997,60.501222493886935C80.49999999999999,60.501222493886935 80.49999999999999,60.50122249388742 16,60.50122249388742Z" style="stroke: rgb(68, 68, 68); stroke-opacity: 1; fill: rgb(0, 0, 0); fill-opacity: 0.2; stroke-width: 0; opacity: 1;"/><path class="sankey-link" d="M16,60.501222493887425C80.49999999999999,60.501222493887425 80.49999999999999,135.1515892420534 144.99999999999997,135.1515892420534L144.99999999999997,179.39364303178448C80.49999999999999,179.39364303178448 80.49999999999999,104.74327628361847 16,104.74327628361847Z" style="stroke: rgb(68, 68, 68); stroke-opacity: 1; fill: rgb(0, 0, 0); fill-opacity: 0.2; stroke-width: 0; opacity: 1;"/><path class="sankey-link" d="M16,104.74327628361847C80.49999999999999,104.74327628361847 80.49999999999999,291.8679706601466 144.99999999999997,291.8679706601466L144.99999999999997,313.8606356968214C80.49999999999999,313.8606356968214 80.49999999999999,126.73594132029329 16,126.73594132029329Z" style="stroke: rgb(68, 68, 68); stroke-opacity: 1; fill: rgb(0, 0, 0); fill-opacity: 0.2; stroke-width: 0; opacity: 1;"/><path class="sankey-link" d="M16,144.7359413202935C80.49999999999999,144.7359413202935 80.49999999999999,60.50122249388693 144.99999999999997,60.50122249388693L144.99999999999997,93.87530562347129C80.49999999999999,93.87530562347129 80.49999999999999,178.11002444987784 16,178.11002444987784Z" style="stroke: rgb(68, 68, 68); stroke-opacity: 1; fill: rgb(0, 0, 0); fill-opacity: 0.2; stroke-width: 0; opacity: 1;"/><path class="sankey-link" d="M16,178.11002444987787C80.49999999999999,178.11002444987787 80.49999999999999,179.39364303178445 144.99999999999997,179.39364303178445L144.99999999999997,231.6797066014666C80.49999999999999,231.6797066014666 80.49999999999999,230.39608801956 16,230.39608801956Z" style="stroke: rgb(68, 68, 68); stroke-opacity: 1; fill: rgb(0, 0, 0); fill-opacity: 0.2; stroke-width: 0; opacity: 1;"/><path class="sankey-link" d="M16,230.39608801956C80.49999999999999,230.39608801956 80.49999999999999,313.8606356968214 144.99999999999997,313.8606356968214L144.99999999999997,339.960880195599C80.49999999999999,339.960880195599 80.49999999999999,256.4963325183375 16,256.4963325183375Z" style="stroke: rgb(68, 68, 68); stroke-opacity: 1; fill: rgb(0, 0, 0); fill-opacity: 0.2; stroke-width: 0; opacity: 1;"/><path class="sankey-link" d="M16,274.49633251833757C80.49999999999999,274.49633251833757 80.49999999999999,93.87530562347129 144.99999999999997,93.87530562347129L144.99999999999997,117.1515892420532C80.49999999999999,117.1515892420532 80.49999999999999,297.7726161369195 16,297.7726161369195Z" style="stroke: rgb(68, 68, 68); stroke-opacity: 1; fill: rgb(0, 0, 0); fill-opacity: 0.2; stroke-width: 0; opacity: 1;"/><path class="sankey-link" d="M16,297.77261613691945C80.49999999999999,297.77261613691945 80.49999999999999,231.6797066014666 144.99999999999997,231.6797066014666L144.99999999999997,273.8679706601463C80.49999999999999,273.8679706601463 80.49999999999999,339.96088019559915 16,339.96088019559915Z" style="stroke: rgb(68, 68, 68); stroke-opacity: 1; fill: rgb(0, 0, 0); fill-opacity: 0.2; stroke-width: 0; opacity: 1;"/><path class="sankey-link" d="M16,339.96088019559915C80.49999999999999,339.96088019559915 80.49999999999999,339.9608801955989 144.99999999999997,339.9608801955989L144.99999999999997,385.99999999999994C80.49999999999999,385.99999999999994 80.49999999999999,386.00000000000017 16,386.00000000000017Z" style="stroke: rgb(68, 68, 68); stroke-opacity: 1; fill: rgb(0, 0, 0); fill-opacity: 0.2; stroke-width: 0; opacity: 1;"/><path class="sankey-link" d="M160.99999999999997,-5.968558980384842e-13C225.49999999999994,-5.968558980384842e-13 225.49999999999994,128.12467882629147 289.99999999999994,128.12467882629147L289.99999999999994,168.34472772604698C225.49999999999994,168.34472772604698 225.49999999999994,40.22004889975491 160.99999999999997,40.22004889975491Z" style="stroke: rgb(68, 68, 68); stroke-opacity: 1; fill: rgb(0, 0, 0); fill-opacity: 0.2; stroke-width: 0; opacity: 1;"/><path class="sankey-link" d="M160.99999999999997,40.220048899754914C225.49999999999994,40.220048899754914 225.49999999999994,219.8899599998856 289.99999999999994,219.8899599998856L289.99999999999994,239.14423872849198C225.49999999999994,239.14423872849198 225.49999999999994,59.474327628361266 160.99999999999997,59.474327628361266Z" style="stroke: rgb(68, 68, 68); stroke-opacity: 1; fill: rgb(0, 0, 0); fill-opacity: 0.2; stroke-width: 0; opacity: 1;"/><path class="sankey-link" d="M160.99999999999997,59.474327628361266C225.49999999999994,59.474327628361266 225.49999999999994,308.4889820047755 289.99999999999994,308.4889820047755L289.99999999999994,315.8483952077095C225.49999999999994,315.8483952077095 225.49999999999994,66.83374083129524 160.99999999999997,66.83374083129524Z" style="stroke: rgb(68, 68, 68); stroke-opacity: 1; fill: rgb(0, 0, 0); fill-opacity: 0.2; stroke-width: 0; opacity: 1;"/><path class="sankey-link" d="M160.99999999999997,135.1515892420534C225.49999999999994,135.1515892420534 225.49999999999994,168.34472772604698 289.99999999999994,168.34472772604698L289.99999999999994,191.79216048888316C225.49999999999994,191.79216048888316 225.49999999999994,158.59902200488958 160.99999999999997,158.59902200488958Z" style="stroke: rgb(68, 68, 68); stroke-opacity: 1; fill: rgb(0, 0, 0); fill-opacity: 0.2; stroke-width: 0; opacity: 1;"/><path class="sankey-link" d="M160.99999999999997,158.5990220048896C225.49999999999994,158.5990220048896 225.49999999999994,239.14423872849196 289.99999999999994,239.14423872849196L289.99999999999994,271.4058524204235C225.49999999999994,271.4058524204235 225.49999999999994,190.86063569682113 160.99999999999997,190.86063569682113Z" style="stroke: rgb(68, 68, 68); stroke-opacity: 1; fill: rgb(0, 0, 0); fill-opacity: 0.2; stroke-width: 0; opacity: 1;"/><path class="sankey-link" d="M160.99999999999997,190.86063569682113C225.49999999999994,190.86063569682113 225.49999999999994,315.8483952077095 289.99999999999994,315.8483952077095L289.99999999999994,331.9364147676117C225.49999999999994,331.9364147676117 225.49999999999994,206.94865525672333 160.99999999999997,206.94865525672333Z" style="stroke: rgb(68, 68, 68); stroke-opacity: 1; fill: rgb(0, 0, 0); fill-opacity: 0.2; stroke-width: 0; opacity: 1;"/><path class="sankey-link" d="M160.99999999999997,291.8679706601466C225.49999999999994,291.8679706601466 225.49999999999994,191.79216048888316 289.99999999999994,191.79216048888316L289.99999999999994,201.8899599998856C225.49999999999994,201.8899599998856 225.49999999999994,301.9657701711491 160.99999999999997,301.9657701711491Z" style="stroke: rgb(68, 68, 68); stroke-opacity: 1; fill: rgb(0, 0, 0); fill-opacity: 0.2; stroke-width: 0; opacity: 1;"/><path class="sankey-link" d="M160.99999999999997,301.9657701711491C225.49999999999994,301.9657701711491 225.49999999999994,271.4058524204235 289.99999999999994,271.4058524204235L289.99999999999994,290.48898200477555C225.49999999999994,290.48898200477555 225.49999999999994,321.0488997555011 160.99999999999997,321.0488997555011Z" style="stroke: rgb(68, 68, 68); stroke-opacity: 1; fill: rgb(0, 0, 0); fill-opacity: 0.2; stroke-width: 0; opacity: 1;"/><path class="sankey-link" d="M160.99999999999997,321.04889975550117C225.49999999999994,321.04889975550117 225.49999999999994,331.93641476761167 289.99999999999994,331.93641476761167L289.99999999999994,352.987759510888C225.49999999999994,352.987759510888 225.49999999999994,342.1002444987775 160.99999999999997,342.1002444987775Z" style="stroke: rgb(68, 68, 68); stroke-opacity: 1; fill: rgb(0, 0, 0); fill-opacity: 0.2; stroke-width: 0; opacity: 1;"/></g><g class="sankey-node-set" style="cursor: move;"><g class="sankey-node" transform="translate(0.000,-0.000)" style="opacity: 1;"><rect class="node-rect" width="16" height="126.73594132029362" style="stroke-width: 0.5; stroke: rgb(68, 68, 68); stroke-opacity: 1; fill: rgb(44, 160, 44); fill-opacity: 1;"/><text class="node-label" data-notex="1" x="0" y="0" text-anchor="start" transform="translate(19.25,67.2179706601468)" style="cursor: default; font-family: 'Open Sans', verdana, arial, sans-serif; font-size: 11px; fill: rgb(42, 63, 95); fill-opacity: 1; text-shadow: rgb(255, 255, 255) 1px 1px 1px, rgb(255, 255, 255) -1px -1px 1px, rgb(255, 255, 255) 1px -1px 1px, rgb(255, 255, 255) -1px 1px 1px; white-space: pre;">V0·Low</text></g><g class="sankey-node" transform="translate(0.000,144.736)" style="opacity: 1;"><rect class="node-rect" width="16" height="111.76039119804406" style="stroke-width: 0.5; stroke: rgb(68, 68, 68); stroke-opacity: 1; fill: rgb(189, 189, 189); fill-opacity: 1;"/><text class="node-label" data-notex="1" x="0" y="0" text-anchor="start" transform="translate(19.25,59.73019559902203)" style="cursor: default; font-family: 'Open Sans', verdana, arial, sans-serif; font-size: 11px; fill: rgb(42, 63, 95); fill-opacity: 1; text-shadow: rgb(255, 255, 255) 1px 1px 1px, rgb(255, 255, 255) -1px -1px 1px, rgb(255, 255, 255) 1px -1px 1px, rgb(255, 255, 255) -1px 1px 1px; white-space: pre;">V0·Mid</text></g><g class="sankey-node" transform="translate(0.000,274.496)" style="opacity: 1;"><rect class="node-rect" width="16" height="111.50366748166243" style="stroke-width: 0.5; stroke: rgb(68, 68, 68); stroke-opacity: 1; fill: rgb(214, 39, 40); fill-opacity: 1;"/><text class="node-label" data-notex="1" x="0" y="0" text-anchor="start" transform="translate(19.25,59.60183374083122)" style="cursor: default; font-family: 'Open Sans', verdana, arial, sans-serif; font-size: 11px; fill: rgb(42, 63, 95); fill-opacity: 1; text-shadow: rgb(255, 255, 255) 1px 1px 1px, rgb(255, 255, 255) -1px -1px 1px, rgb(255, 255, 255) 1px -1px 1px, rgb(255, 255, 255) -1px 1px 1px; white-space: pre;">V0·High</text></g><g class="sankey-node" transform="translate(145.000,-0.000)" style="opacity: 1;"><rect class="node-rect" width="16" height="117.151589242054" style="stroke-width: 0.5; stroke: rgb(68, 68, 68); stroke-opacity: 1; fill: rgb(44, 160, 44); fill-opacity: 1;"/><text class="node-label" data-notex="1" x="0" y="0" text-anchor="start" transform="translate(19.25,62.425794621027)" style="cursor: default; font-family: 'Open Sans', verdana, arial, sans-serif; font-size: 11px; fill: rgb(42, 63, 95); fill-opacity: 1; text-shadow: rgb(255, 255, 255) 1px 1px 1px, rgb(255, 255, 255) -1px -1px 1px, rgb(255, 255, 255) 1px -1px 1px, rgb(255, 255, 255) -1px 1px 1px; white-space: pre;">V1·Low</text></g><g class="sankey-node" transform="translate(145.000,135.152)" style="opacity: 1;"><rect class="node-rect" width="16" height="138.71638141809322" style="stroke-width: 0.5; stroke: rgb(68, 68, 68); stroke-opacity: 1; fill: rgb(189, 189, 189); fill-opacity: 1;"/><text class="node-label" data-notex="1" x="0" y="0" text-anchor="start" transform="translate(19.25,73.2081907090466)" style="cursor: default; font-family: 'Open Sans', verdana, arial, sans-serif; font-size: 11px; fill: rgb(42, 63, 95); fill-opacity: 1; text-shadow: rgb(255, 255, 255) 1px 1px 1px, rgb(255, 255, 255) -1px -1px 1px, rgb(255, 255, 255) 1px -1px 1px, rgb(255, 255, 255) -1px 1px 1px; white-space: pre;">V1·Mid</text></g><g class="sankey-node" transform="translate(145.000,291.868)" style="opacity: 1;"><rect class="node-rect" width="16" height="94.13202933985337" style="stroke-width: 0.5; stroke: rgb(68, 68, 68); stroke-opacity: 1; fill: rgb(214, 39, 40); fill-opacity: 1;"/><text class="node-label" data-notex="1" x="0" y="0" text-anchor="start" transform="translate(19.25,50.91601466992669)" style="cursor: default; font-family: 'Open Sans', verdana, arial, sans-serif; font-size: 11px; fill: rgb(42, 63, 95); fill-opacity: 1; text-shadow: rgb(255, 255, 255) 1px 1px 1px, rgb(255, 255, 255) -1px -1px 1px, rgb(255, 255, 255) 1px -1px 1px, rgb(255, 255, 255) -1px 1px 1px; white-space: pre;">V1·High</text></g><g class="sankey-node" transform="translate(290.000,128.125)" style="opacity: 1;"><rect class="node-rect" width="16" height="73.76528117359413" style="stroke-width: 0.5; stroke: rgb(68, 68, 68); stroke-opacity: 1; fill: rgb(44, 160, 44); fill-opacity: 1;"/><text class="node-label" data-notex="1" x="0" y="0" text-anchor="end" transform="translate(-3.25,40.73264058679707)" style="cursor: default; font-family: 'Open Sans', verdana, arial, sans-serif; font-size: 11px; fill: rgb(42, 63, 95); fill-opacity: 1; text-shadow: rgb(255, 255, 255) 1px 1px 1px, rgb(255, 255, 255) -1px -1px 1px, rgb(255, 255, 255) 1px -1px 1px, rgb(255, 255, 255) -1px 1px 1px; white-space: pre;">V2·Low</text></g><g class="sankey-node" transform="translate(290.000,219.890)" style="opacity: 1;"><rect class="node-rect" width="16" height="70.59902200488989" style="stroke-width: 0.5; stroke: rgb(68, 68, 68); stroke-opacity: 1; fill: rgb(189, 189, 189); fill-opacity: 1;"/><text class="node-label" data-notex="1" x="0" y="0" text-anchor="end" transform="translate(-3.25,39.149511002444946)" style="cursor: default; font-family: 'Open Sans', verdana, arial, sans-serif; font-size: 11px; fill: rgb(42, 63, 95); fill-opacity: 1; text-shadow: rgb(255, 255, 255) 1px 1px 1px, rgb(255, 255, 255) -1px -1px 1px, rgb(255, 255, 255) 1px -1px 1px, rgb(255, 255, 255) -1px 1px 1px; white-space: pre;">V2·Mid</text></g><g class="sankey-node" transform="translate(290.000,308.489)" style="opacity: 1;"><rect class="node-rect" width="16" height="44.49877750611245" style="stroke-width: 0.5; stroke: rgb(68, 68, 68); stroke-opacity: 1; fill: rgb(214, 39, 40); fill-opacity: 1;"/><text class="node-label" data-notex="1" x="0" y="0" text-anchor="end" transform="translate(-3.25,26.099388753056225)" style="cursor: default; font-family: 'Open Sans', verdana, arial, sans-serif; font-size: 11px; fill: rgb(42, 63, 95); fill-opacity: 1; text-shadow: rgb(255, 255, 255) 1px 1px 1px, rgb(255, 255, 255) -1px -1px 1px, rgb(255, 255, 255) 1px -1px 1px, rgb(255, 255, 255) -1px 1px 1px; white-space: pre;">V2·High</text></g></g></g><defs id="topdefs-1f6607"><g class="clips"/></defs><g class="layer-above"><g class="imagelayer"/><g class="shapelayer"/></g><g class="infolayer"><g class="g-gtitle"><text class="gtitle" x="35" y="15" text-anchor="start" dy="0.7em" style="opacity: 1; font-family: 'Open Sans', verdana, arial, sans-serif; font-size: 15px; fill: rgb(42, 63, 95); fill-opacity: 1; white-space: pre;">Dimensional phenotype flow: continuous-axis band trajectories V0→V1→V2</text></g><g class="first-render"/><g class="annotation" data-index="0" style="opacity: 1;"><g class="annotation-text-g" transform="rotate(0,163,88.5)"><g class="cursor-pointer" transform="translate(48,79)"><rect class="bg" x="0.5" y="0.5" width="229" height="18" style="stroke-width: 1px; stroke: rgb(0, 0, 0); stroke-opacity: 0; fill: rgb(0, 0, 0); fill-opacity: 0;"/><text class="annotation-text" text-anchor="middle" x="115.1328125" y="14" style="font-family: 'Open Sans', verdana, arial, sans-serif; font-size: 12px; fill: rgb(42, 63, 95); fill-opacity: 1; white-space: pre;">Depression (trait) · 55% stay in band</text></g></g></g><g class="annotation" data-index="1" style="opacity: 1;"><g class="annotation-text-g" transform="rotate(0,537,88.5)"><g class="cursor-pointer" transform="translate(435,79)"><rect class="bg" x="0.5" y="0.5" width="203" height="18" style="stroke-width: 1px; stroke: rgb(0, 0, 0); stroke-opacity: 0; fill: rgb(0, 0, 0); fill-opacity: 0;"/><text class="annotation-text" text-anchor="middle" x="102.03125" y="14" style="font-family: 'Open Sans', verdana, arial, sans-serif; font-size: 12px; fill: rgb(42, 63, 95); fill-opacity: 1; white-space: pre;">Mania (state) · 45% stay in band</text></g></g></g></g></svg>