<svg class="main-svg" xmlns="http://www.w3.org/2000/svg" xmlns:xlink="http://www.w3.org/1999/xlink" width="1400" height="1000" style="" viewBox="0 0 700 500"><rect x="0" y="0" width="700" height="500" style="fill: rgb(255, 255, 255); fill-opacity: 1;"/><defs id="defs-5af047"><g class="clips"/><g class="gradients"/><g class="patterns"/></defs><g class="bglayer"/><g class="layer-below"><g class="imagelayer"/><g class="shapelayer"/></g><g class="cartesianlayer"/><g class="polarlayer"/><g class="smithlayer"/><g class="ternarylayer"/><g class="geolayer"/><g class="funnelarealayer"/><g class="pielayer"/><g class="iciclelayer"/><g class="treemaplayer"/><g class="sunburstlayer"/><g class="glimages"/><g class="sankey" transform="translate(10,58)matrix(1 0 0 1 0 0)" style="box-sizing: content-box; position: absolute; left: 0px; shape-rendering: geometricprecision; pointer-events: none;"><g class="sankey-links" style="fill: none;"><path class="sankey-link" d="M16,377.59784439205106C340,377.59784439205106 340,170.68103738632564 664,170.68103738632564L664,174.11384304479648C340,174.11384304479648 340,381.03065005052196 16,381.03065005052196Z" style="stroke: rgb(68, 68, 68); stroke-opacity: 1; fill: rgb(0, 0, 0); fill-opacity: 0.2; stroke-width: 0; opacity: 1;"/><path class="sankey-link" d="M16,381.0306500505219C340,381.0306500505219 340,291.1741327046146 664,291.1741327046146L664,298.94509936005414C340,298.94509936005414 340,388.80161670596146 16,388.80161670596146Z" style="stroke: rgb(68, 68, 68); stroke-opacity: 1; fill: rgb(0, 0, 0); fill-opacity: 0.2; stroke-width: 0; opacity: 1;"/><path class="sankey-link" d="M16,388.80161670596146C340,388.80161670596146 340,411.74267430111155 664,411.74267430111155L664,421.0980127989223C340,421.0980127989223 340,398.1569552037722 16,398.1569552037722Z" style="stroke: rgb(68, 68, 68); stroke-opacity: 1; fill: rgb(0, 0, 0); fill-opacity: 0.2; stroke-width: 0; opacity: 1;"/><path class="sankey-link" d="M16,-3.410605131648481e-13C340,-3.410605131648481e-13 340,64.00000000000026 664,64.00000000000026L664,122.35769619400497C340,122.35769619400497 340,58.357696194004376 16,58.357696194004376Z" style="stroke: rgb(68, 68, 68); stroke-opacity: 1; fill: rgb(0, 0, 0); fill-opacity: 0.2; stroke-width: 0; opacity: 1;"/><path class="sankey-link" d="M16,58.35769619400437C340,58.35769619400437 340,192.00000000000023 664,192.00000000000023L664,223.61199056921544C340,223.61199056921544 340,89.96968676321958 16,89.96968676321958Z" style="stroke: rgb(68, 68, 68); stroke-opacity: 1; fill: rgb(0, 0, 0); fill-opacity: 0.2; stroke-width: 0; opacity: 1;"/><path class="sankey-link" d="M16,89.9696867632196C340,89.9696867632196 340,320.00000000000006 664,320.00000000000006L664,340.5213876726171C340,340.5213876726171 340,110.49107443583664 16,110.49107443583664Z" style="stroke: rgb(68, 68, 68); stroke-opacity: 1; fill: rgb(0, 0, 0); fill-opacity: 0.2; stroke-width: 0; opacity: 1;"/><path class="sankey-link" d="M16,167.16200740990212C340,167.16200740990212 340,133.59919164701947 664,133.59919164701947L664,160.83529808016195C340,160.83529808016195 340,194.3981138430446 16,194.3981138430446Z" style="stroke: rgb(68, 68, 68); stroke-opacity: 1; fill: rgb(0, 0, 0); fill-opacity: 0.2; stroke-width: 0; opacity: 1;"/><path class="sankey-link" d="M16,194.3981138430446C340,194.3981138430446 340,232.06197372852833 664,232.06197372852833L664,267.1067699562144C340,267.1067699562144 340,229.4429100707307 16,229.4429100707307Z" style="stroke: rgb(68, 68, 68); stroke-opacity: 1; fill: rgb(0, 0, 0); fill-opacity: 0.2; stroke-width: 0; opacity: 1;"/><path class="sankey-link" d="M16,229.4429100707307C340,229.4429100707307 340,345.50084203435506 664,345.50084203435506L664,381.2623779050185C340,381.2623779050185 340,265.2044459413942 16,265.2044459413942Z" style="stroke: rgb(68, 68, 68); stroke-opacity: 1; fill: rgb(0, 0, 0); fill-opacity: 0.2; stroke-width: 0; opacity: 1;"/><path class="sankey-link" d="M16,126.49107443583658C340,126.49107443583658 340,122.35769619400497 664,122.35769619400497L664,133.59919164701947C340,133.59919164701947 340,137.73256988885106 16,137.73256988885106Z" style="stroke: rgb(68, 68, 68); stroke-opacity: 1; fill: rgb(0, 0, 0); fill-opacity: 0.2; stroke-width: 0; opacity: 1;"/><path class="sankey-link" d="M16,137.73256988885106C340,137.73256988885106 340,223.61199056921544 664,223.61199056921544L664,232.06197372852836C340,232.06197372852836 340,146.18255304816398 16,146.18255304816398Z" style="stroke: rgb(68, 68, 68); stroke-opacity: 1; fill: rgb(0, 0, 0); fill-opacity: 0.2; stroke-width: 0; opacity: 1;"/><path class="sankey-link" d="M16,146.18255304816395C340,146.18255304816395 340,340.5213876726171 664,340.5213876726171L664,345.500842034355C340,345.500842034355 340,151.16200740990192 16,151.16200740990192Z" style="stroke: rgb(68, 68, 68); stroke-opacity: 1; fill: rgb(0, 0, 0); fill-opacity: 0.2; stroke-width: 0; opacity: 1;"/><path class="sankey-link" d="M16,414.15695520377227C340,414.15695520377227 340,174.1138430447965 664,174.1138430447965L664,176.00000000000028C340,176.00000000000028 340,416.04311215897604 16,416.04311215897604Z" style="stroke: rgb(68, 68, 68); stroke-opacity: 1; fill: rgb(0, 0, 0); fill-opacity: 0.2; stroke-width: 0; opacity: 1;"/><path class="sankey-link" d="M16,416.04311215897604C340,416.04311215897604 340,298.94509936005414 664,298.94509936005414L664,304.0000000000003C340,304.0000000000003 340,421.0980127989222 16,421.0980127989222Z" style="stroke: rgb(68, 68, 68); stroke-opacity: 1; fill: rgb(0, 0, 0); fill-opacity: 0.2; stroke-width: 0; opacity: 1;"/><path class="sankey-link" d="M16,421.0980127989221C340,421.0980127989221 340,421.09801279892224 664,421.09801279892224L664,432C340,432 340,431.9999999999999 16,431.9999999999999Z" style="stroke: rgb(68, 68, 68); stroke-opacity: 1; fill: rgb(0, 0, 0); fill-opacity: 0.2; stroke-width: 0; opacity: 1;"/><path class="sankey-link" d="M16,281.2044459413943C340,281.2044459413943 340,160.83529808016195 664,160.83529808016195L664,161.32569888851495C340,161.32569888851495 340,281.6948467497473 16,281.6948467497473Z" style="stroke: rgb(0, 0, 0); stroke-opacity: 0.2; fill: rgb(0, 0, 0); fill-opacity: 0.2; stroke-width: 1; opacity: 1;"/><path class="sankey-link" d="M16,281.6948467497473C340,281.6948467497473 340,267.1067699562144 664,267.1067699562144L664,267.86123273829594C340,267.86123273829594 340,282.4493095318288 16,282.4493095318288Z" style="stroke: rgb(0, 0, 0); stroke-opacity: 0.2; fill: rgb(0, 0, 0); fill-opacity: 0.2; stroke-width: 1; opacity: 1;"/><path class="sankey-link" d="M16,282.4493095318288C340,282.4493095318288 340,381.2623779050186 664,381.2623779050186L664,381.5641630178512C340,381.5641630178512 340,282.7510946446614 16,282.7510946446614Z" style="stroke: rgb(0, 0, 0); stroke-opacity: 0.2; fill: rgb(0, 0, 0); fill-opacity: 0.2; stroke-width: 1; opacity: 1;"/><path class="sankey-link" d="M16,298.75109464466135C340,298.75109464466135 340,161.32569888851492 664,161.32569888851492L664,170.6810373863256C340,170.6810373863256 340,308.1064331424721 16,308.1064331424721Z" style="stroke: rgb(68, 68, 68); stroke-opacity: 1; fill: rgb(0, 0, 0); fill-opacity: 0.2; stroke-width: 0; opacity: 1;"/><path class="sankey-link" d="M16,308.10643314247204C340,308.10643314247204 340,267.86123273829594 664,267.86123273829594L664,291.1741327046145C340,291.1741327046145 340,331.4193331087906 16,331.4193331087906Z" style="stroke: rgb(68, 68, 68); stroke-opacity: 1; fill: rgb(0, 0, 0); fill-opacity: 0.2; stroke-width: 0; opacity: 1;"/><path class="sankey-link" d="M16,331.4193331087907C340,331.4193331087907 340,381.5641630178512 664,381.5641630178512L664,411.74267430111155C340,411.74267430111155 340,361.59784439205106 16,361.59784439205106Z" style="stroke: rgb(68, 68, 68); stroke-opacity: 1; fill: rgb(0, 0, 0); fill-opacity: 0.2; stroke-width: 0; opacity: 1;"/></g><g class="sankey-node-set" style="cursor: move;"><g class="sankey-node" transform="translate(0.000,377.598)" style="opacity: 1;"><rect class="node-rect" width="16" height="20.55911081172121" style="stroke-width: 0.5; stroke: rgb(68, 68, 68); stroke-opacity: 1; fill: rgb(44, 123, 182); fill-opacity: 1;"/><text class="node-label" data-notex="1" x="0" y="0" text-anchor="start" transform="translate(19.25,14.479555405860605)" style="cursor: default; font-family: 'Open Sans', verdana, arial, sans-serif; font-size: 12px; fill: rgb(42, 63, 95); fill-opacity: 1; text-shadow: rgb(255, 255, 255) 1px 1px 1px, rgb(255, 255, 255) -1px -1px 1px, rgb(255, 255, 255) 1px -1px 1px, rgb(255, 255, 255) -1px 1px 1px; white-space: pre;">MDD</text></g><g class="sankey-node" transform="translate(0.000,-0.000)" style="opacity: 1;"><rect class="node-rect" width="16" height="110.49107443583692" style="stroke-width: 0.5; stroke: rgb(68, 68, 68); stroke-opacity: 1; fill: rgb(94, 159, 198); fill-opacity: 1;"/><text class="node-label" data-notex="1" x="0" y="0" text-anchor="start" transform="translate(19.25,59.44553721791846)" style="cursor: default; font-family: 'Open Sans', verdana, arial, sans-serif; font-size: 12px; fill: rgb(42, 63, 95); fill-opacity: 1; text-shadow: rgb(255, 255, 255) 1px 1px 1px, rgb(255, 255, 255) -1px -1px 1px, rgb(255, 255, 255) 1px -1px 1px, rgb(255, 255, 255) -1px 1px 1px; white-space: pre;">BP-II</text></g><g class="sankey-node" transform="translate(0.000,167.162)" style="opacity: 1;"><rect class="node-rect" width="16" height="98.04243853149217" style="stroke-width: 0.5; stroke: rgb(68, 68, 68); stroke-opacity: 1; fill: rgb(171, 217, 233); fill-opacity: 1;"/><text class="node-label" data-notex="1" x="0" y="0" text-anchor="start" transform="translate(19.25,53.221219265746086)" style="cursor: default; font-family: 'Open Sans', verdana, arial, sans-serif; font-size: 12px; fill: rgb(42, 63, 95); fill-opacity: 1; text-shadow: rgb(255, 255, 255) 1px 1px 1px, rgb(255, 255, 255) -1px -1px 1px, rgb(255, 255, 255) 1px -1px 1px, rgb(255, 255, 255) -1px 1px 1px; white-space: pre;">BP-I</text></g><g class="sankey-node" transform="translate(0.000,126.491)" style="opacity: 1;"><rect class="node-rect" width="16" height="24.670932974065536" style="stroke-width: 0.5; stroke: rgb(68, 68, 68); stroke-opacity: 1; fill: rgb(204, 204, 204); fill-opacity: 1;"/><text class="node-label" data-notex="1" x="0" y="0" text-anchor="start" transform="translate(19.25,16.535466487032767)" style="cursor: default; font-family: 'Open Sans', verdana, arial, sans-serif; font-size: 12px; fill: rgb(42, 63, 95); fill-opacity: 1; text-shadow: rgb(255, 255, 255) 1px 1px 1px, rgb(255, 255, 255) -1px -1px 1px, rgb(255, 255, 255) 1px -1px 1px, rgb(255, 255, 255) -1px 1px 1px; white-space: pre;">BP-NOS</text></g><g class="sankey-node" transform="translate(0.000,414.157)" style="opacity: 1;"><rect class="node-rect" width="16" height="17.84304479622773" style="stroke-width: 0.5; stroke: rgb(68, 68, 68); stroke-opacity: 1; fill: rgb(253, 174, 97); fill-opacity: 1;"/><text class="node-label" data-notex="1" x="0" y="0" text-anchor="start" transform="translate(19.25,13.121522398113864)" style="cursor: default; font-family: 'Open Sans', verdana, arial, sans-serif; font-size: 12px; fill: rgb(42, 63, 95); fill-opacity: 1; text-shadow: rgb(255, 255, 255) 1px 1px 1px, rgb(255, 255, 255) -1px -1px 1px, rgb(255, 255, 255) 1px -1px 1px, rgb(255, 255, 255) -1px 1px 1px; white-space: pre;">schizoaff.</text></g><g class="sankey-node" transform="translate(0.000,281.204)" style="opacity: 1;"><rect class="node-rect" width="16" height="1.546648703267067" style="stroke-width: 0.5; stroke: rgb(68, 68, 68); stroke-opacity: 1; fill: rgb(244, 109, 67); fill-opacity: 1;"/><text class="node-label" data-notex="1" x="0" y="0" text-anchor="start" transform="translate(19.25,4.973324351633533)" style="cursor: default; font-family: 'Open Sans', verdana, arial, sans-serif; font-size: 12px; fill: rgb(42, 63, 95); fill-opacity: 1; text-shadow: rgb(255, 255, 255) 1px 1px 1px, rgb(255, 255, 255) -1px -1px 1px, rgb(255, 255, 255) 1px -1px 1px, rgb(255, 255, 255) -1px 1px 1px; white-space: pre;">schizophrenif.</text></g><g class="sankey-node" transform="translate(0.000,298.751)" style="opacity: 1;"><rect class="node-rect" width="16" height="62.84674974738971" style="stroke-width: 0.5; stroke: rgb(68, 68, 68); stroke-opacity: 1; fill: rgb(215, 25, 28); fill-opacity: 1;"/><text class="node-label" data-notex="1" x="0" y="0" text-anchor="start" transform="translate(19.25,35.62337487369486)" style="cursor: default; font-family: 'Open Sans', verdana, arial, sans-serif; font-size: 12px; fill: rgb(42, 63, 95); fill-opacity: 1; text-shadow: rgb(255, 255, 255) 1px 1px 1px, rgb(255, 255, 255) -1px -1px 1px, rgb(255, 255, 255) 1px -1px 1px, rgb(255, 255, 255) -1px 1px 1px; white-space: pre;">schizophr.</text></g><g class="sankey-node" transform="translate(664.000,64.000)" style="opacity: 1;"><rect class="node-rect" width="16" height="111.99999999999997" style="stroke-width: 0.5; stroke: rgb(68, 68, 68); stroke-opacity: 1; fill: rgb(44, 160, 44); fill-opacity: 1;"/><text class="node-label" data-notex="1" x="0" y="0" text-anchor="end" transform="translate(-3.25,60.19999999999999)" style="cursor: default; font-family: 'Open Sans', verdana, arial, sans-serif; font-size: 12px; fill: rgb(42, 63, 95); fill-opacity: 1; text-shadow: rgb(255, 255, 255) 1px 1px 1px, rgb(255, 255, 255) -1px -1px 1px, rgb(255, 255, 255) 1px -1px 1px, rgb(255, 255, 255) -1px 1px 1px; white-space: pre;">Illness burden·Low</text></g><g class="sankey-node" transform="translate(664.000,192.000)" style="opacity: 1;"><rect class="node-rect" width="16" height="111.99999999999983" style="stroke-width: 0.5; stroke: rgb(68, 68, 68); stroke-opacity: 1; fill: rgb(189, 189, 189); fill-opacity: 1;"/><text class="node-label" data-notex="1" x="0" y="0" text-anchor="end" transform="translate(-3.25,60.19999999999992)" style="cursor: default; font-family: 'Open Sans', verdana, arial, sans-serif; font-size: 12px; fill: rgb(42, 63, 95); fill-opacity: 1; text-shadow: rgb(255, 255, 255) 1px 1px 1px, rgb(255, 255, 255) -1px -1px 1px, rgb(255, 255, 255) 1px -1px 1px, rgb(255, 255, 255) -1px 1px 1px; white-space: pre;">Illness burden·Mid</text></g><g class="sankey-node" transform="translate(664.000,320.000)" style="opacity: 1;"><rect class="node-rect" width="16" height="111.99999999999994" style="stroke-width: 0.5; stroke: rgb(68, 68, 68); stroke-opacity: 1; fill: rgb(214, 39, 40); fill-opacity: 1;"/><text class="node-label" data-notex="1" x="0" y="0" text-anchor="end" transform="translate(-3.25,60.199999999999974)" style="cursor: default; font-family: 'Open Sans', verdana, arial, sans-serif; font-size: 12px; fill: rgb(42, 63, 95); fill-opacity: 1; text-shadow: rgb(255, 255, 255) 1px 1px 1px, rgb(255, 255, 255) -1px -1px 1px, rgb(255, 255, 255) 1px -1px 1px, rgb(255, 255, 255) -1px 1px 1px; white-space: pre;">Illness burden·High</text></g></g></g><defs id="topdefs-5af047"><g class="clips"/></defs><g class="layer-above"><g class="imagelayer"/><g class="shapelayer"/></g><g class="infolayer"><g class="g-gtitle"><text class="gtitle" x="350" y="29" text-anchor="middle" dy="0em" style="opacity: 1; font-family: 'Open Sans', verdana, arial, sans-serif; font-size: 14px; fill: rgb(42, 63, 95); fill-opacity: 1; white-space: pre;">DSM-5 → Illness burden axis band  (η²=0.13, 95% CI 0.12–0.15)</text></g><g class="first-render"/></g></svg>